# xmcd
#
# Track frame offsets:
#	150
#	13835
#	33450
#	52792
#	71206
#	105937
#	132266
#	165784
#	186557
#	214012
#	228704
#	249839
#	270617
#	281730
#	300677
#	313215
#
# Disc length: 4484 seconds
#
# Revision: 1
# Processed by: cddbd v1.5PL3 Copyright (c) Steve Scherf et al.
# Submitted via: audiograbber 1.82.01
#
DISCID=e1118210
DTITLE=Jeff beck - Rare Raw Rough and Ready
DYEAR=1900
DGENRE=
TTITLE0=Jeff Beck - Going Down
TTITLE1=Jeff Beck - Goodbye Pork Pie Hat
TTITLE2=Jeff Beck - Led Boots
TTITLE3=Jeff Beck - She's A Woman
TTITLE4=Jeff Beck - New Ways-Plynth-Train Train
TTITLE5=Jeff Beck - Got The Feeling
TTITLE6=Jeff Beck - Definitely Maybe
TTITLE7=Jeff Beck - Ain't No Sunshine
TTITLE8=Jeff Beck - Let Me Love You
TTITLE9=Jeff Beck - Shapes Of Things
TTITLE10=Jeff Beck - Let Me Love You
TTITLE11=Jeff Beck - Morning Dew
TTITLE12=Jeff Beck - You Shook Me
TTITLE13=Jeff Beck - Rock My Plimsoul
TTITLE14=Jeff Beck - Beck's Bolero
TTITLE15=Jeff Beck - I Ain't Superstitious
EXTD=
EXTT0=
EXTT1=
EXTT2=
EXTT3=
EXTT4=
EXTT5=
EXTT6=
EXTT7=
EXTT8=
EXTT9=
EXTT10=
EXTT11=
EXTT12=
EXTT13=
EXTT14=
EXTT15=
PLAYORDER=
